Coordinates
version=1
nRows=13
nColumns=36
inDegrees=yes

Units are S.I. units (second, meters, Newtons, ...)
If the header above contains a line with 'inDegrees', this indicates whether rotational values are in degrees (yes) or radians (no).

endheader
time	pelvis_tilt	pelvis_list	pelvis_rotation	pelvis_tx	pelvis_ty	pelvis_tz	hip_flexion_r	hip_adduction_r	hip_rotation_r	knee_angle_r	knee_angle_r_beta	ankle_angle_r	subtalar_angle_r	mtp_angle_r	hip_flexion_l	hip_adduction_l	hip_rotation_l	knee_angle_l	knee_angle_l_beta	ankle_angle_l	subtalar_angle_l	mtp_angle_l	lumbar_extension	lumbar_bending	lumbar_rotation	arm_flex_r	arm_add_r	arm_rot_r	elbow_flex_r	pro_sup_r	arm_flex_l	arm_add_l	arm_rot_l	elbow_flex_l	pro_sup_l
      0.00000000	     -1.49583870	     -2.11603717	      2.04169803	      0.38162141	      0.94199580	      0.01693475	     -0.76346785	     -0.96557506	      4.30901377	      6.89140587	      0.12027772	      4.75678219	    -13.40280856	     -6.19644641	     -0.33710272	     -8.16369568	      0.98780278	      7.76430475	      0.13551268	      4.90383283	    -15.66227988	     -6.19644641	     -4.31208538	      1.51715910	     -2.70003421	      0.03741248	     -7.98418709	      2.13400358	     24.32408135	     76.11886086	      1.25462467	    -10.28088602	     10.00311646	     18.10638288	     67.25353113
      0.01694910	     -3.99032112	     -1.85545356	      1.78211593	      0.38333427	      0.93629364	      0.00766915	      1.92611389	     -1.98981405	      4.97695370	      7.10422273	      0.12399208	      8.13743476	    -10.20074225	     -6.82879153	      2.75429603	     -7.13455746	      1.10586948	      7.90818571	      0.13802388	      4.77332293	    -14.66110814	     -6.82879153	     -0.48256450	      1.60568320	     -3.04396287	     -1.02877575	     -6.95437029	     -6.68219947	     24.33903974	     80.95223702	      0.09431449	     -7.92255592	     -2.18072540	     17.85835947	     75.76646079
      0.03389830	     -4.93332728	     -1.08395104	      1.53935726	      0.37972696	      0.93570400	      0.00389657	      2.82493571	     -3.48173986	      4.47082952	      6.48198677	      0.11313201	      8.51192073	     -9.29216563	     -6.88840456	      3.60871528	     -6.16032578	      0.30420124	      7.47015902	      0.13037887	      4.30124528	    -14.28577397	     -6.88840456	      0.70291015	      0.61833721	     -2.84502608	     -1.73152411	     -6.54976768	     -9.26226200	     25.42802800	     79.55945430	     -0.20203455	     -7.80046815	     -3.02052060	     18.13389933	     75.16469806
      0.05084750	     -5.39638962	     -0.71849426	      1.63140046	      0.38012379	      0.93582714	      0.00452770	      3.05667412	     -4.17966939	      4.49693705	      5.73117286	      0.10002784	      8.78244451	     -8.93435499	     -6.92838615	      3.84436353	     -5.67021608	      0.13791449	      6.91298084	      0.12065428	      4.30502914	    -14.38234717	     -6.92838615	      1.59261341	      0.10466669	     -2.83719745	     -2.45212591	     -6.50015651	     -9.30551205	     26.37954347	     78.24675567	     -0.62727153	     -8.06801915	     -3.02612796	     18.65516341	     74.06818908
      0.06779660	     -4.55273035	     -0.38625033	      1.55911804	      0.38014658	      0.93773339	      0.00449566	      1.95748894	     -4.59343257	      4.21378402	      5.30544645	      0.09259751	      9.35290015	     -7.50621991	     -6.97084353	      2.31957157	     -5.29944209	      0.12245464	      5.73531379	      0.10010011	      3.40698513	    -14.76891316	     -6.97084353	      0.45762268	     -0.25633750	     -2.47387021	     -2.10889374	     -6.18422931	    -10.41466377	     26.36763833	     77.21762030	      0.06121587	     -8.17578861	     -2.56011111	     18.65558314	     73.43558899
      0.08474580	     -4.43163230	     -0.16829735	      1.70770102	      0.38402177	      0.94088537	     -0.00026798	      1.52557432	     -4.93247126	      4.38362958	      4.87213810	      0.08503485	      9.31457076	     -7.10686987	     -6.98105132	      1.86114824	     -4.89215944	      0.38663124	      5.30201503	      0.09253762	      3.17773471	    -14.82549021	     -6.98105132	      0.46293791	     -0.41282552	     -2.33661773	     -2.35170844	     -6.10590508	    -10.54879152	     26.50910682	     77.08194527	      0.34735608	     -8.17872850	     -2.51776256	     18.81370054	     73.26994143
      0.10169490	     -4.03284229	     -0.00420138	      1.82464978	      0.38410551	      0.94116923	     -0.00052455	      0.64183635	     -5.13551105	      4.54604740	      4.23695736	      0.07394886	      9.34655385	     -6.77817487	     -7.03167956	      1.14448780	     -4.63507739	      0.58986290	      4.83385092	      0.08436661	      3.06727685	    -14.76397939	     -7.03167956	      0.06940162	     -0.47458084	     -2.27288634	     -2.34054147	     -5.97472983	    -10.59033394	     26.60539937	     76.21122401	      0.62773431	     -8.14764752	     -2.75715007	     18.88917211	     72.38166788
      0.11864410	     -3.87435627	      0.14287306	      1.97264862	      0.37924457	      0.94096300	     -0.00455441	      0.25812528	     -5.40750675	      4.55649350	      3.85442114	      0.06727234	      9.18966375	     -6.65660901	     -7.04188464	      0.92176947	     -4.30814925	      0.96754645	      4.57621024	      0.07986994	      2.83995249	    -14.98655302	     -7.04188464	     -0.20271499	     -0.48651413	     -2.10060976	     -2.20080261	     -5.99848024	    -10.35246999	     26.84214886	     76.23586322	      1.14182621	     -7.99526639	     -2.93462737	     18.94660549	     72.15553018
      0.13559320	     -3.67087339	      0.26042122	      2.07615704	      0.37918295	      0.94135486	     -0.00460387	     -0.09409347	     -5.60432030	      4.67417291	      3.55734016	      0.06208730	      9.01476883	     -6.71904917	     -7.06820520	      0.70002756	     -4.08541622	      1.26869675	      4.41349342	      0.07702999	      2.49817348	    -15.20784967	     -7.06820520	     -0.53730158	     -0.50799609	     -2.05656596	     -2.03056141	     -5.97416390	    -10.11387059	     27.12237379	     75.48874498	      1.62974997	     -7.84185664	     -3.01790757	     18.97286912	     71.40357121
      0.15254240	     -3.47916284	      0.33085028	      2.16594944	      0.37886895	      0.94131970	     -0.00427089	     -0.38188082	     -5.72252897	      4.58426498	      3.32622190	      0.05805352	      8.84884460	     -6.91130867	     -7.37068513	      0.39643756	     -3.93264289	      1.44427505	      4.12854727	      0.07205674	      2.30867401	    -15.24519901	     -7.37068513	     -0.88676801	     -0.50377570	     -2.11054681	     -1.75833681	     -6.01641579	     -9.15549551	     27.32921823	     76.24408746	      1.87350942	     -7.74650967	     -3.00683916	     19.38583353	     69.79925114
      0.16949150	     -3.47489924	      0.37274511	      2.20027251	      0.38292592	      0.94129758	     -0.00916747	     -0.49947658	     -5.87257536	      4.57647340	      3.32026798	      0.05794961	      8.81974058	     -6.90318027	     -7.37081146	      0.35383949	     -3.77406604	      1.45631619	      4.15688596	      0.07255135	      2.28834976	    -15.23092124	     -7.37081146	     -0.77768026	     -0.39047314	     -2.13570643	     -1.70164930	     -6.00321842	     -9.14113549	     27.35677509	     76.24875535	      2.00345949	     -7.64412142	     -3.00079233	     19.44882212	     69.80106788
      0.18644070	     -3.45838088	      0.37344892	      2.26219172	      0.37882101	      0.94119517	     -0.00406124	     -0.55127867	     -5.82909676	      4.52230756	      3.23555437	      0.05647108	      8.83101660	     -6.92706703	     -7.37096581	      0.34724247	     -3.76078380	      1.48679079	      4.15015583	      0.07243388	      2.28034204	    -15.21873920	     -7.37096581	     -0.71579066	     -0.41097974	     -2.09126573	     -1.52895888	     -5.86633653	     -9.08297506	     27.45329530	     76.26376958	      2.21810126	     -7.63526990	     -3.01302730	     19.53455752	     69.80032020
      0.20338980	     -2.90746816	      0.38437930	      2.46395715	      0.37874004	      0.94190205	     -0.00450523	     -1.48033161	     -5.76598219	      4.42407304	      2.65341941	      0.04631091	      8.51183873	     -7.02421789	     -7.38342055	     -0.36142120	     -3.82872426	      1.69540482	      3.79729334	      0.06627527	      2.06212093	    -14.97813894	     -7.38342055	     -1.55035299	     -0.45879485	     -1.92661151	     -1.45212178	     -5.89747375	     -8.34791076	     27.94361811	     75.54588716	      2.78473028	     -7.63875855	     -3.36345347	     19.70790329	     69.13577897
